M48
; DRILL file {KiCad (5.1.9)-1} date 04/14/21 17:13:01
; FORMAT={-:-/ absolute / inch / decimal}
; #@! TF.CreationDate,2021-04-14T17:13:01-04:00
; #@! TF.GenerationSoftware,Kicad,Pcbnew,(5.1.9)-1
; #@! TF.FileFunction,Plated,1,2,PTH
FMAT,2
INCH
T1C0.0157
T2C0.0276
T3C0.0307
T4C0.0354
T5C0.0394
%
G90
G05
T1
X2.4Y-3.55
X2.4Y-4.15
X2.8Y-3.55
X2.8Y-4.15
X3.2Y-3.55
X3.6Y-3.55
X4.0Y-3.55
X4.4Y-3.55
X4.4Y-4.15
X4.8Y-3.55
X4.8Y-4.15
X5.2Y-3.55
X5.2Y-4.15
X5.6Y-3.55
X5.6Y-4.15
X5.95Y-3.55
X5.95Y-4.15
T2
X2.95Y-3.8
X2.95Y-3.95
X3.05Y-3.8
X3.05Y-3.95
X3.7Y-3.95
X3.8Y-3.95
X4.45Y-3.75
X4.55Y-3.75
X5.15Y-3.7
X5.15Y-3.85
X5.15Y-4.0
X5.25Y-3.7
X5.25Y-3.85
X5.25Y-4.0
T3
X3.1937Y-3.7
X3.1937Y-3.8
X3.1937Y-3.9
X3.1937Y-4.0
X3.5063Y-3.7
X3.5063Y-3.8
X3.5063Y-3.9
X3.5063Y-4.0
X4.6937Y-3.7
X4.6937Y-3.8
X4.6937Y-3.9
X4.6937Y-4.0
X5.0063Y-3.7
X5.0063Y-3.8
X5.0063Y-3.9
X5.0063Y-4.0
T4
X5.4Y-3.75
X5.4Y-3.95
X5.5Y-3.75
X5.5Y-3.95
T5
X2.8Y-3.65
X2.8Y-3.75
X2.8Y-3.85
X2.8Y-3.95
X2.8Y-4.05
X3.7Y-3.75
X3.95Y-3.95
X4.2906Y-3.75
X4.5406Y-3.95
X5.75Y-3.7
X5.75Y-3.8
X5.75Y-4.0
T0
M30
