%TF.GenerationSoftware,KiCad,Pcbnew,(5.1.9)-1*%
%TF.CreationDate,2021-04-14T17:12:51-04:00*%
%TF.ProjectId,HeartRateMonitor,48656172-7452-4617-9465-4d6f6e69746f,rev?*%
%TF.SameCoordinates,Original*%
%TF.FileFunction,Soldermask,Bot*%
%TF.FilePolarity,Negative*%
%FSLAX46Y46*%
G04 Gerber Fmt 4.6, Leading zero omitted, Abs format (unit mm)*
G04 Created by KiCad (PCBNEW (5.1.9)-1) date 2021-04-14 17:12:51*
%MOMM*%
%LPD*%
G01*
G04 APERTURE LIST*
%ADD10O,1.800000X1.800000*%
%ADD11R,1.800000X1.800000*%
%ADD12O,1.700000X1.700000*%
%ADD13R,1.700000X1.700000*%
%ADD14C,1.130000*%
%ADD15R,1.130000X1.130000*%
%ADD16O,1.400000X1.400000*%
%ADD17C,1.400000*%
%ADD18O,2.000000X2.000000*%
%ADD19R,2.000000X2.000000*%
G04 APERTURE END LIST*
D10*
%TO.C,D1*%
X139700000Y-95250000D03*
D11*
X137160000Y-95250000D03*
%TD*%
D12*
%TO.C,J3*%
X146050000Y-96520000D03*
D13*
X146050000Y-93980000D03*
%TD*%
%TO.C,J2*%
X146050000Y-101600000D03*
%TD*%
D12*
%TO.C,J1*%
X71120000Y-92710000D03*
X71120000Y-95250000D03*
X71120000Y-97790000D03*
X71120000Y-100330000D03*
D13*
X71120000Y-102870000D03*
%TD*%
D10*
%TO.C,D2*%
X139700000Y-100330000D03*
D11*
X137160000Y-100330000D03*
%TD*%
D14*
%TO.C,U2*%
X127160000Y-93980000D03*
X127160000Y-96520000D03*
X127160000Y-99060000D03*
X127160000Y-101600000D03*
X119220000Y-101600000D03*
X119220000Y-99060000D03*
X119220000Y-96520000D03*
D15*
X119220000Y-93980000D03*
%TD*%
D14*
%TO.C,U1*%
X89060000Y-93980000D03*
X89060000Y-96520000D03*
X89060000Y-99060000D03*
X89060000Y-101600000D03*
X81120000Y-101600000D03*
X81120000Y-99060000D03*
X81120000Y-96520000D03*
D15*
X81120000Y-93980000D03*
%TD*%
D16*
%TO.C,RL2*%
X77470000Y-96520000D03*
D17*
X74930000Y-96520000D03*
%TD*%
D16*
%TO.C,RL1*%
X96520000Y-100330000D03*
D17*
X93980000Y-100330000D03*
%TD*%
D16*
%TO.C,RH1*%
X115570000Y-95250000D03*
D17*
X113030000Y-95250000D03*
%TD*%
D16*
%TO.C,RF1*%
X77470000Y-100330000D03*
D17*
X74930000Y-100330000D03*
%TD*%
D16*
%TO.C,R4*%
X133350000Y-101600000D03*
D17*
X130810000Y-101600000D03*
%TD*%
D16*
%TO.C,R2*%
X133350000Y-97790000D03*
D17*
X130810000Y-97790000D03*
%TD*%
D16*
%TO.C,R1*%
X133350000Y-93980000D03*
D17*
X130810000Y-93980000D03*
%TD*%
D18*
%TO.C,CL1*%
X115330000Y-100330000D03*
D19*
X100330000Y-100330000D03*
%TD*%
D18*
%TO.C,CH1*%
X108980000Y-95250000D03*
D19*
X93980000Y-95250000D03*
%TD*%
M02*
