%TF.GenerationSoftware,KiCad,Pcbnew,(5.1.9)-1*%
%TF.CreationDate,2021-04-14T17:12:50-04:00*%
%TF.ProjectId,HeartRateMonitor,48656172-7452-4617-9465-4d6f6e69746f,rev?*%
%TF.SameCoordinates,Original*%
%TF.FileFunction,Legend,Top*%
%TF.FilePolarity,Positive*%
%FSLAX46Y46*%
G04 Gerber Fmt 4.6, Leading zero omitted, Abs format (unit mm)*
G04 Created by KiCad (PCBNEW (5.1.9)-1) date 2021-04-14 17:12:50*
%MOMM*%
%LPD*%
G01*
G04 APERTURE LIST*
%ADD10C,0.120000*%
%ADD11C,0.200000*%
%ADD12C,0.127000*%
%ADD13C,0.150000*%
%ADD14C,0.015000*%
G04 APERTURE END LIST*
D10*
%TO.C,D1*%
X138646150Y-96218866D02*
G75*
G03*
X138586761Y-94350000I1053850J968866D01*
G01*
%TO.C,J3*%
X146050000Y-92650000D02*
X147380000Y-92650000D01*
X147380000Y-92650000D02*
X147380000Y-93980000D01*
X147380000Y-95250000D02*
X147380000Y-97850000D01*
X144720000Y-97850000D02*
X147380000Y-97850000D01*
X144720000Y-95250000D02*
X144720000Y-97850000D01*
X144720000Y-95250000D02*
X147380000Y-95250000D01*
%TO.C,J2*%
X144720000Y-100270000D02*
X146050000Y-100270000D01*
X144720000Y-101600000D02*
X144720000Y-100270000D01*
X144720000Y-102870000D02*
X147380000Y-102870000D01*
X147380000Y-102870000D02*
X147380000Y-102930000D01*
X144720000Y-102870000D02*
X144720000Y-102930000D01*
X144720000Y-102930000D02*
X147380000Y-102930000D01*
%TO.C,J1*%
X71120000Y-104200000D02*
X69790000Y-104200000D01*
X69790000Y-104200000D02*
X69790000Y-102870000D01*
X69790000Y-101600000D02*
X69790000Y-91380000D01*
X72450000Y-91380000D02*
X69790000Y-91380000D01*
X72450000Y-101600000D02*
X72450000Y-91380000D01*
X72450000Y-101600000D02*
X69790000Y-101600000D01*
%TO.C,D2*%
X138646150Y-101298866D02*
G75*
G03*
X138586761Y-99430000I1053850J968866D01*
G01*
D11*
%TO.C,U2*%
X118255000Y-93980000D02*
G75*
G03*
X118255000Y-93980000I-100000J0D01*
G01*
D12*
X120015000Y-92995000D02*
X126365000Y-92995000D01*
X120015000Y-102585000D02*
X126365000Y-102585000D01*
D11*
%TO.C,U1*%
X80155000Y-93980000D02*
G75*
G03*
X80155000Y-93980000I-100000J0D01*
G01*
D12*
X81915000Y-92995000D02*
X88265000Y-92995000D01*
X81915000Y-102585000D02*
X88265000Y-102585000D01*
D10*
%TO.C,RL2*%
X75850000Y-96520000D02*
G75*
G03*
X75850000Y-96520000I-920000J0D01*
G01*
X75850000Y-96520000D02*
X76470000Y-96520000D01*
%TO.C,RL1*%
X94900000Y-100330000D02*
G75*
G03*
X94900000Y-100330000I-920000J0D01*
G01*
X94900000Y-100330000D02*
X95520000Y-100330000D01*
%TO.C,RH1*%
X113950000Y-95250000D02*
G75*
G03*
X113950000Y-95250000I-920000J0D01*
G01*
X113950000Y-95250000D02*
X114570000Y-95250000D01*
%TO.C,RF1*%
X75850000Y-100330000D02*
G75*
G03*
X75850000Y-100330000I-920000J0D01*
G01*
X75850000Y-100330000D02*
X76470000Y-100330000D01*
%TO.C,R4*%
X131730000Y-101600000D02*
G75*
G03*
X131730000Y-101600000I-920000J0D01*
G01*
X131730000Y-101600000D02*
X132350000Y-101600000D01*
%TO.C,R2*%
X131730000Y-97790000D02*
G75*
G03*
X131730000Y-97790000I-920000J0D01*
G01*
X131730000Y-97790000D02*
X132350000Y-97790000D01*
%TO.C,R1*%
X131730000Y-93980000D02*
G75*
G03*
X131730000Y-93980000I-920000J0D01*
G01*
X131730000Y-93980000D02*
X132350000Y-93980000D01*
%TO.C,CL1*%
X100960000Y-98130000D02*
X102460000Y-98130000D01*
X101710000Y-97380000D02*
X101710000Y-98880000D01*
X102710000Y-97960000D02*
X102710000Y-102700000D01*
X112950000Y-97960000D02*
X112950000Y-102700000D01*
X102710000Y-97960000D02*
X104210000Y-97960000D01*
X104210000Y-97960000D02*
X104960000Y-98710000D01*
X104960000Y-98710000D02*
X105710000Y-97960000D01*
X105710000Y-97960000D02*
X112950000Y-97960000D01*
X102710000Y-102700000D02*
X104210000Y-102700000D01*
X104210000Y-102700000D02*
X104960000Y-101950000D01*
X104960000Y-101950000D02*
X105710000Y-102700000D01*
X105710000Y-102700000D02*
X112950000Y-102700000D01*
X101570000Y-100330000D02*
X102710000Y-100330000D01*
X114090000Y-100330000D02*
X112950000Y-100330000D01*
%TO.C,CH1*%
X94610000Y-93050000D02*
X96110000Y-93050000D01*
X95360000Y-92300000D02*
X95360000Y-93800000D01*
X96360000Y-92880000D02*
X96360000Y-97620000D01*
X106600000Y-92880000D02*
X106600000Y-97620000D01*
X96360000Y-92880000D02*
X97860000Y-92880000D01*
X97860000Y-92880000D02*
X98610000Y-93630000D01*
X98610000Y-93630000D02*
X99360000Y-92880000D01*
X99360000Y-92880000D02*
X106600000Y-92880000D01*
X96360000Y-97620000D02*
X97860000Y-97620000D01*
X97860000Y-97620000D02*
X98610000Y-96870000D01*
X98610000Y-96870000D02*
X99360000Y-97620000D01*
X99360000Y-97620000D02*
X106600000Y-97620000D01*
X95220000Y-95250000D02*
X96360000Y-95250000D01*
X107740000Y-95250000D02*
X106600000Y-95250000D01*
%TO.C,D1*%
D13*
X137691904Y-93232380D02*
X137691904Y-92232380D01*
X137930000Y-92232380D01*
X138072857Y-92280000D01*
X138168095Y-92375238D01*
X138215714Y-92470476D01*
X138263333Y-92660952D01*
X138263333Y-92803809D01*
X138215714Y-92994285D01*
X138168095Y-93089523D01*
X138072857Y-93184761D01*
X137930000Y-93232380D01*
X137691904Y-93232380D01*
X139215714Y-93232380D02*
X138644285Y-93232380D01*
X138930000Y-93232380D02*
X138930000Y-92232380D01*
X138834761Y-92375238D01*
X138739523Y-92470476D01*
X138644285Y-92518095D01*
X134998095Y-95702380D02*
X134998095Y-94702380D01*
X135569523Y-95702380D02*
X135140952Y-95130952D01*
X135569523Y-94702380D02*
X134998095Y-95273809D01*
%TO.C,J3*%
X145716666Y-90662380D02*
X145716666Y-91376666D01*
X145669047Y-91519523D01*
X145573809Y-91614761D01*
X145430952Y-91662380D01*
X145335714Y-91662380D01*
X146097619Y-90662380D02*
X146716666Y-90662380D01*
X146383333Y-91043333D01*
X146526190Y-91043333D01*
X146621428Y-91090952D01*
X146669047Y-91138571D01*
X146716666Y-91233809D01*
X146716666Y-91471904D01*
X146669047Y-91567142D01*
X146621428Y-91614761D01*
X146526190Y-91662380D01*
X146240476Y-91662380D01*
X146145238Y-91614761D01*
X146097619Y-91567142D01*
%TO.C,J2*%
X145716666Y-98722380D02*
X145716666Y-99436666D01*
X145669047Y-99579523D01*
X145573809Y-99674761D01*
X145430952Y-99722380D01*
X145335714Y-99722380D01*
X146145238Y-98817619D02*
X146192857Y-98770000D01*
X146288095Y-98722380D01*
X146526190Y-98722380D01*
X146621428Y-98770000D01*
X146669047Y-98817619D01*
X146716666Y-98912857D01*
X146716666Y-99008095D01*
X146669047Y-99150952D01*
X146097619Y-99722380D01*
X146716666Y-99722380D01*
%TO.C,J1*%
X70786666Y-105092380D02*
X70786666Y-105806666D01*
X70739047Y-105949523D01*
X70643809Y-106044761D01*
X70500952Y-106092380D01*
X70405714Y-106092380D01*
X71786666Y-106092380D02*
X71215238Y-106092380D01*
X71500952Y-106092380D02*
X71500952Y-105092380D01*
X71405714Y-105235238D01*
X71310476Y-105330476D01*
X71215238Y-105378095D01*
%TO.C,D2*%
X137691904Y-98312380D02*
X137691904Y-97312380D01*
X137930000Y-97312380D01*
X138072857Y-97360000D01*
X138168095Y-97455238D01*
X138215714Y-97550476D01*
X138263333Y-97740952D01*
X138263333Y-97883809D01*
X138215714Y-98074285D01*
X138168095Y-98169523D01*
X138072857Y-98264761D01*
X137930000Y-98312380D01*
X137691904Y-98312380D01*
X138644285Y-97407619D02*
X138691904Y-97360000D01*
X138787142Y-97312380D01*
X139025238Y-97312380D01*
X139120476Y-97360000D01*
X139168095Y-97407619D01*
X139215714Y-97502857D01*
X139215714Y-97598095D01*
X139168095Y-97740952D01*
X138596666Y-98312380D01*
X139215714Y-98312380D01*
X134998095Y-100782380D02*
X134998095Y-99782380D01*
X135569523Y-100782380D02*
X135140952Y-100210952D01*
X135569523Y-99782380D02*
X134998095Y-100353809D01*
%TO.C,U2*%
D14*
X121863095Y-91635380D02*
X121863095Y-92444904D01*
X121910714Y-92540142D01*
X121958333Y-92587761D01*
X122053571Y-92635380D01*
X122244047Y-92635380D01*
X122339285Y-92587761D01*
X122386904Y-92540142D01*
X122434523Y-92444904D01*
X122434523Y-91635380D01*
X122863095Y-91730619D02*
X122910714Y-91683000D01*
X123005952Y-91635380D01*
X123244047Y-91635380D01*
X123339285Y-91683000D01*
X123386904Y-91730619D01*
X123434523Y-91825857D01*
X123434523Y-91921095D01*
X123386904Y-92063952D01*
X122815476Y-92635380D01*
X123434523Y-92635380D01*
%TO.C,U1*%
X83763095Y-91635380D02*
X83763095Y-92444904D01*
X83810714Y-92540142D01*
X83858333Y-92587761D01*
X83953571Y-92635380D01*
X84144047Y-92635380D01*
X84239285Y-92587761D01*
X84286904Y-92540142D01*
X84334523Y-92444904D01*
X84334523Y-91635380D01*
X85334523Y-92635380D02*
X84763095Y-92635380D01*
X85048809Y-92635380D02*
X85048809Y-91635380D01*
X84953571Y-91778238D01*
X84858333Y-91873476D01*
X84763095Y-91921095D01*
%TO.C,RL2*%
D13*
X75628571Y-95052380D02*
X75295238Y-94576190D01*
X75057142Y-95052380D02*
X75057142Y-94052380D01*
X75438095Y-94052380D01*
X75533333Y-94100000D01*
X75580952Y-94147619D01*
X75628571Y-94242857D01*
X75628571Y-94385714D01*
X75580952Y-94480952D01*
X75533333Y-94528571D01*
X75438095Y-94576190D01*
X75057142Y-94576190D01*
X76533333Y-95052380D02*
X76057142Y-95052380D01*
X76057142Y-94052380D01*
X76819047Y-94147619D02*
X76866666Y-94100000D01*
X76961904Y-94052380D01*
X77200000Y-94052380D01*
X77295238Y-94100000D01*
X77342857Y-94147619D01*
X77390476Y-94242857D01*
X77390476Y-94338095D01*
X77342857Y-94480952D01*
X76771428Y-95052380D01*
X77390476Y-95052380D01*
%TO.C,RL1*%
X94678571Y-98862380D02*
X94345238Y-98386190D01*
X94107142Y-98862380D02*
X94107142Y-97862380D01*
X94488095Y-97862380D01*
X94583333Y-97910000D01*
X94630952Y-97957619D01*
X94678571Y-98052857D01*
X94678571Y-98195714D01*
X94630952Y-98290952D01*
X94583333Y-98338571D01*
X94488095Y-98386190D01*
X94107142Y-98386190D01*
X95583333Y-98862380D02*
X95107142Y-98862380D01*
X95107142Y-97862380D01*
X96440476Y-98862380D02*
X95869047Y-98862380D01*
X96154761Y-98862380D02*
X96154761Y-97862380D01*
X96059523Y-98005238D01*
X95964285Y-98100476D01*
X95869047Y-98148095D01*
%TO.C,RH1*%
X113609523Y-93782380D02*
X113276190Y-93306190D01*
X113038095Y-93782380D02*
X113038095Y-92782380D01*
X113419047Y-92782380D01*
X113514285Y-92830000D01*
X113561904Y-92877619D01*
X113609523Y-92972857D01*
X113609523Y-93115714D01*
X113561904Y-93210952D01*
X113514285Y-93258571D01*
X113419047Y-93306190D01*
X113038095Y-93306190D01*
X114038095Y-93782380D02*
X114038095Y-92782380D01*
X114038095Y-93258571D02*
X114609523Y-93258571D01*
X114609523Y-93782380D02*
X114609523Y-92782380D01*
X115609523Y-93782380D02*
X115038095Y-93782380D01*
X115323809Y-93782380D02*
X115323809Y-92782380D01*
X115228571Y-92925238D01*
X115133333Y-93020476D01*
X115038095Y-93068095D01*
%TO.C,RF1*%
X75604761Y-98862380D02*
X75271428Y-98386190D01*
X75033333Y-98862380D02*
X75033333Y-97862380D01*
X75414285Y-97862380D01*
X75509523Y-97910000D01*
X75557142Y-97957619D01*
X75604761Y-98052857D01*
X75604761Y-98195714D01*
X75557142Y-98290952D01*
X75509523Y-98338571D01*
X75414285Y-98386190D01*
X75033333Y-98386190D01*
X76366666Y-98338571D02*
X76033333Y-98338571D01*
X76033333Y-98862380D02*
X76033333Y-97862380D01*
X76509523Y-97862380D01*
X77414285Y-98862380D02*
X76842857Y-98862380D01*
X77128571Y-98862380D02*
X77128571Y-97862380D01*
X77033333Y-98005238D01*
X76938095Y-98100476D01*
X76842857Y-98148095D01*
%TO.C,R4*%
X131913333Y-100132380D02*
X131580000Y-99656190D01*
X131341904Y-100132380D02*
X131341904Y-99132380D01*
X131722857Y-99132380D01*
X131818095Y-99180000D01*
X131865714Y-99227619D01*
X131913333Y-99322857D01*
X131913333Y-99465714D01*
X131865714Y-99560952D01*
X131818095Y-99608571D01*
X131722857Y-99656190D01*
X131341904Y-99656190D01*
X132770476Y-99465714D02*
X132770476Y-100132380D01*
X132532380Y-99084761D02*
X132294285Y-99799047D01*
X132913333Y-99799047D01*
%TO.C,R2*%
X131913333Y-96322380D02*
X131580000Y-95846190D01*
X131341904Y-96322380D02*
X131341904Y-95322380D01*
X131722857Y-95322380D01*
X131818095Y-95370000D01*
X131865714Y-95417619D01*
X131913333Y-95512857D01*
X131913333Y-95655714D01*
X131865714Y-95750952D01*
X131818095Y-95798571D01*
X131722857Y-95846190D01*
X131341904Y-95846190D01*
X132294285Y-95417619D02*
X132341904Y-95370000D01*
X132437142Y-95322380D01*
X132675238Y-95322380D01*
X132770476Y-95370000D01*
X132818095Y-95417619D01*
X132865714Y-95512857D01*
X132865714Y-95608095D01*
X132818095Y-95750952D01*
X132246666Y-96322380D01*
X132865714Y-96322380D01*
%TO.C,R1*%
X131913333Y-92512380D02*
X131580000Y-92036190D01*
X131341904Y-92512380D02*
X131341904Y-91512380D01*
X131722857Y-91512380D01*
X131818095Y-91560000D01*
X131865714Y-91607619D01*
X131913333Y-91702857D01*
X131913333Y-91845714D01*
X131865714Y-91940952D01*
X131818095Y-91988571D01*
X131722857Y-92036190D01*
X131341904Y-92036190D01*
X132865714Y-92512380D02*
X132294285Y-92512380D01*
X132580000Y-92512380D02*
X132580000Y-91512380D01*
X132484761Y-91655238D01*
X132389523Y-91750476D01*
X132294285Y-91798095D01*
%TO.C,CL1*%
X107258571Y-97317142D02*
X107210952Y-97364761D01*
X107068095Y-97412380D01*
X106972857Y-97412380D01*
X106830000Y-97364761D01*
X106734761Y-97269523D01*
X106687142Y-97174285D01*
X106639523Y-96983809D01*
X106639523Y-96840952D01*
X106687142Y-96650476D01*
X106734761Y-96555238D01*
X106830000Y-96460000D01*
X106972857Y-96412380D01*
X107068095Y-96412380D01*
X107210952Y-96460000D01*
X107258571Y-96507619D01*
X108163333Y-97412380D02*
X107687142Y-97412380D01*
X107687142Y-96412380D01*
X109020476Y-97412380D02*
X108449047Y-97412380D01*
X108734761Y-97412380D02*
X108734761Y-96412380D01*
X108639523Y-96555238D01*
X108544285Y-96650476D01*
X108449047Y-96698095D01*
%TO.C,CH1*%
X100789523Y-92237142D02*
X100741904Y-92284761D01*
X100599047Y-92332380D01*
X100503809Y-92332380D01*
X100360952Y-92284761D01*
X100265714Y-92189523D01*
X100218095Y-92094285D01*
X100170476Y-91903809D01*
X100170476Y-91760952D01*
X100218095Y-91570476D01*
X100265714Y-91475238D01*
X100360952Y-91380000D01*
X100503809Y-91332380D01*
X100599047Y-91332380D01*
X100741904Y-91380000D01*
X100789523Y-91427619D01*
X101218095Y-92332380D02*
X101218095Y-91332380D01*
X101218095Y-91808571D02*
X101789523Y-91808571D01*
X101789523Y-92332380D02*
X101789523Y-91332380D01*
X102789523Y-92332380D02*
X102218095Y-92332380D01*
X102503809Y-92332380D02*
X102503809Y-91332380D01*
X102408571Y-91475238D01*
X102313333Y-91570476D01*
X102218095Y-91618095D01*
%TD*%
M02*
